<svg width="40" height="26" viewBox="0 0 40 26" fill="none" xmlns="http://www.w3.org/2000/svg">
<path d="M11.635 0.5C12.7875 0.5 13.8525 0.5875 14.83 0.85C15.805 1.025 16.6075 1.39 17.32 1.8275C18.0325 2.265 18.5625 2.8925 18.9225 3.695C19.2725 4.495 19.4625 5.4725 19.4625 6.5375C19.4625 7.7775 19.1975 8.8425 18.5725 9.6425C18.035 10.4425 17.1575 11.1575 16.08 11.685C17.595 12.125 18.7475 12.925 19.45 13.99C20.1525 15.055 20.6025 16.3825 20.6025 17.8975C20.6025 19.1375 20.34 20.2025 19.89 21.0925C19.4427 21.9894 18.7688 22.7538 17.935 23.31C17.135 23.8475 16.1575 24.285 15.0925 24.55C14.0494 24.8262 12.9764 24.974 11.8975 24.99L0 25.0075V0.5H11.635ZM10.9225 10.445C11.8975 10.445 12.6975 10.1825 13.315 9.7325C13.93 9.2825 14.2025 8.49 14.2025 7.515C14.2025 6.975 14.115 6.45 13.94 6.0975C13.749 5.74135 13.4745 5.43682 13.14 5.21C12.7779 5.01112 12.39 4.86306 11.9875 4.77C11.5475 4.6825 11.0975 4.6825 10.57 4.6825H5.425V10.4575C5.425 10.445 10.9225 10.445 10.9225 10.445ZM11.185 20.9275C11.7225 20.9275 12.25 20.84 12.7 20.7525C13.14 20.665 13.59 20.4875 13.94 20.2125C14.29 19.9375 14.565 19.675 14.83 19.2375C15.005 18.7975 15.18 18.26 15.18 17.635C15.18 16.395 14.83 15.505 14.115 14.88C13.4025 14.3425 12.425 14.08 11.2725 14.08H5.425V20.915H11.1875L11.185 20.9275ZM28.33 20.84C29.0433 21.5517 30.1083 21.9067 31.525 21.905C32.5 21.905 33.39 21.64 34.105 21.19C34.815 20.6567 35.2567 20.1233 35.43 19.59H39.78C39.065 21.7175 38 23.2325 36.585 24.21C35.17 25.0975 33.4775 25.625 31.435 25.625C30.1287 25.6329 28.833 25.3911 27.6175 24.9125C26.5217 24.5082 25.5446 23.8361 24.775 22.9575C23.952 22.1403 23.341 21.1345 22.995 20.0275C22.5575 18.875 22.37 17.635 22.37 16.2075C22.37 14.88 22.545 13.6275 22.995 12.475C23.445 11.325 24.06 10.345 24.8625 9.4575C25.6625 8.6575 26.64 7.9425 27.705 7.5025C28.8922 7.02862 30.1592 6.78676 31.4375 6.79C32.9525 6.79 34.28 7.0525 35.4325 7.6775C36.5825 8.3025 37.475 9.0075 38.1875 10.0725C38.9 11.0475 39.4275 12.2 39.79 13.4425C39.965 14.6825 40.0525 15.9325 39.965 17.35H27.09C27.09 18.8 27.615 20.125 28.33 20.84ZM33.93 11.51C33.305 10.885 32.325 10.5325 31.1725 10.5325C30.3725 10.5325 29.7575 10.7075 29.22 10.9725C28.6825 11.2375 28.33 11.5975 27.98 11.9475C27.6536 12.2909 27.4361 12.7232 27.355 13.19C27.265 13.6275 27.18 13.99 27.18 14.34H35.17C34.995 13.025 34.5475 12.135 33.93 11.51ZM26.1125 2.19H36.0575V4.5825H26.1125V2.19Z" fill="white"/>
</svg>
