<svg width="20" height="20" viewBox="0 0 20 20" fill="none" xmlns="http://www.w3.org/2000/svg">
<path d="M5.21783 18.9384L5.13961 19.4323H5.13961L5.21783 18.9384ZM1.06156 14.7822L1.5554 14.704L1.06156 14.7822ZM18.9384 14.7822L19.4323 14.8604V14.8604L18.9384 14.7822ZM14.7822 18.9384L14.8604 19.4323H14.8604L14.7822 18.9384ZM18.4001 8.69971C18.2343 8.47892 17.9209 8.43437 17.7001 8.60022C17.4793 8.76606 17.4347 9.07949 17.6006 9.30029L18.4001 8.69971ZM2.39942 9.30029C2.56526 9.07949 2.52072 8.76606 2.29992 8.60022C2.07913 8.43437 1.7657 8.47892 1.59985 8.69971L2.39942 9.30029ZM10.5 1C10.5 0.723858 10.2761 0.5 10 0.5C9.72386 0.5 9.5 0.723858 9.5 1H10.5ZM6.39179 10.6894C6.22022 10.473 5.90573 10.4366 5.68935 10.6082C5.47297 10.7798 5.43665 11.0943 5.60821 11.3106L6.39179 10.6894ZM7.39785 12.763L7.00606 13.0736L7.39785 12.763ZM12.6022 12.763L12.2104 12.4523L12.6022 12.763ZM14.3918 11.3106C14.5634 11.0943 14.527 10.7798 14.3106 10.6082C14.0943 10.4366 13.7798 10.473 13.6082 10.6894L14.3918 11.3106ZM9.74933 14.9801L9.67066 15.4739L9.67066 15.4739L9.74933 14.9801ZM10.2507 14.9801L10.3293 15.4739L10.3293 15.4739L10.2507 14.9801ZM18.5 12V13H19.5V12H18.5ZM13 18.5H7V19.5H13V18.5ZM1.5 13V12H0.5V13H1.5ZM7 18.5C6.05189 18.5 5.63604 18.4984 5.29604 18.4446L5.13961 19.4323C5.57694 19.5016 6.0901 19.5 7 19.5V18.5ZM0.5 13C0.5 13.9099 0.498448 14.4231 0.567714 14.8604L1.5554 14.704C1.50155 14.364 1.5 13.9481 1.5 13H0.5ZM5.29604 18.4446C3.37053 18.1396 1.86037 16.6295 1.5554 14.704L0.567714 14.8604C0.940458 17.2138 2.7862 19.0595 5.13961 19.4323L5.29604 18.4446ZM18.5 13C18.5 13.9481 18.4984 14.364 18.4446 14.704L19.4323 14.8604C19.5016 14.4231 19.5 13.9099 19.5 13H18.5ZM13 19.5C13.9099 19.5 14.4231 19.5016 14.8604 19.4323L14.704 18.4446C14.364 18.4984 13.9481 18.5 13 18.5V19.5ZM18.4446 14.704C18.1396 16.6295 16.6295 18.1396 14.704 18.4446L14.8604 19.4323C17.2138 19.0595 19.0595 17.2138 19.4323 14.8604L18.4446 14.704ZM19.5 12C19.5 10.7624 19.0906 9.61898 18.4001 8.69971L17.6006 9.30029C18.1655 10.0523 18.5 10.9864 18.5 12H19.5ZM1.5 12C1.5 10.9864 1.83453 10.0523 2.39942 9.30029L1.59985 8.69971C0.909358 9.61898 0.5 10.7624 0.5 12H1.5ZM9.5 1V14H10.5V1H9.5ZM5.60821 11.3106L7.00606 13.0736L7.78963 12.4523L6.39179 10.6894L5.60821 11.3106ZM12.9939 13.0736L14.3918 11.3106L13.6082 10.6894L12.2104 12.4523L12.9939 13.0736ZM7.00606 13.0736C7.55585 13.767 7.99425 14.3212 8.38263 14.711C8.77324 15.1032 9.17532 15.395 9.67066 15.4739L9.828 14.4863C9.64399 14.457 9.42771 14.3432 9.0911 14.0053C8.75226 13.6652 8.3546 13.1649 7.78963 12.4523L7.00606 13.0736ZM12.2104 12.4523C11.6454 13.1649 11.2477 13.6652 10.9089 14.0053C10.5723 14.3432 10.356 14.457 10.172 14.4863L10.3293 15.4739C10.8247 15.395 11.2268 15.1032 11.6174 14.711C12.0058 14.3212 12.4442 13.767 12.9939 13.0736L12.2104 12.4523ZM9.67066 15.4739C9.77981 15.4913 9.88984 15.5 10 15.5V14.5C9.94272 14.5 9.88531 14.4955 9.828 14.4863L9.67066 15.4739ZM10 15.5C10.1102 15.5 10.2202 15.4913 10.3293 15.4739L10.172 14.4863C10.1147 14.4955 10.0573 14.5 10 14.5V15.5ZM9.5 14V15H10.5V14H9.5Z" fill="#0E0E14"/>
</svg>
