<svg width="16" height="16" viewBox="0 0 16 16" fill="none" xmlns="http://www.w3.org/2000/svg">
<path d="M8.46253 7.44665V7.42798L8.4502 7.44698L8.46253 7.44665Z" fill="white"/>
<path d="M5.21338 4.73755C5.35145 4.73755 5.46338 4.62562 5.46338 4.48755C5.46338 4.34948 5.35145 4.23755 5.21338 4.23755C5.07531 4.23755 4.96338 4.34948 4.96338 4.48755C4.96338 4.62562 5.07531 4.73755 5.21338 4.73755Z" fill="white"/>
<path d="M5.21338 5.64341V10.6374M11.0367 10.6374V7.43474C11.0368 7.17982 10.9866 6.92738 10.8891 6.69185C10.7915 6.45632 10.6486 6.24231 10.4683 6.06203C10.2881 5.88176 10.0741 5.73876 9.83858 5.64119C9.60306 5.54363 9.35064 5.49341 9.09571 5.49341C8.84076 5.49336 8.5883 5.54355 8.35274 5.64109C8.11719 5.73864 7.90316 5.88164 7.72288 6.06191C7.54261 6.24219 7.39961 6.45622 7.30206 6.69177C7.20452 6.92733 7.15433 7.17979 7.15438 7.43474M7.15438 7.43474V10.6374M7.15438 7.43474V5.64341" stroke="white" stroke-width="0.8" stroke-linecap="round" stroke-linejoin="round"/>
<path d="M12.8335 1.83325H3.16683C2.81321 1.83325 2.47407 1.97373 2.22402 2.22378C1.97397 2.47382 1.8335 2.81296 1.8335 3.16659V12.8333C1.8335 13.1869 1.97397 13.526 2.22402 13.7761C2.47407 14.0261 2.81321 14.1666 3.16683 14.1666H12.8335C13.1871 14.1666 13.5263 14.0261 13.7763 13.7761C14.0264 13.526 14.1668 13.1869 14.1668 12.8333V3.16659C14.1668 2.81296 14.0264 2.47382 13.7763 2.22378C13.5263 1.97373 13.1871 1.83325 12.8335 1.83325Z" stroke="white" stroke-width="0.8" stroke-linecap="round" stroke-linejoin="round"/>
</svg>
