<svg width="25" height="25" viewBox="-6 -6 39 39" fill="none" xmlns="http://www.w3.org/2000/svg">
<path fill-rule="evenodd" clip-rule="evenodd" d="M9.28625 8.71113H13.9287V11.0236C14.5975 9.69363 16.3125 8.49863 18.8888 8.49863C23.8275 8.49863 25 11.1461 25 16.0036V24.9999H20V17.1099C20 14.3436 19.3313 12.7836 17.6287 12.7836C15.2675 12.7836 14.2863 14.4649 14.2863 17.1086V24.9999H9.28625V8.71113ZM0.7125 24.7874H5.7125V8.49863H0.7125V24.7874ZM6.42875 3.18738C6.42894 3.60647 6.34582 4.02142 6.18423 4.40811C6.02265 4.7948 5.78581 5.14552 5.4875 5.43988C4.883 6.04066 4.06476 6.37694 3.2125 6.37488C2.36174 6.37431 1.54539 6.03888 0.94 5.44113C0.642764 5.14577 0.406732 4.79466 0.24543 4.40792C0.0841268 4.02118 0.000723915 3.60641 0 3.18738C0 2.34113 0.3375 1.53113 0.94125 0.933628C1.54611 0.335076 2.3628 -0.000496084 3.21375 -0.000121757C4.06625 -0.000121757 4.88375 0.336128 5.4875 0.933628C6.09 1.53113 6.42875 2.34113 6.42875 3.18738Z" fill="white"/>
</svg>
