<svg width="529" height="350" viewBox="0 0 529 350" fill="none" xmlns="http://www.w3.org/2000/svg">
<path fill-rule="evenodd" clip-rule="evenodd" d="M80.9934 27C113.493 1.49999 209.193 -9.80001 211.993 77V125C210.999 125.612 213.101 124.312 211.993 125C191.383 137.802 136.995 156.5 75.9934 172.5C29.1923 182.5 -29.5039 231.5 16.9934 311.5C34.4955 338 83.7953 369.1 164.995 333.5C181.995 325 200.495 310.5 208.995 294.5C209.354 295.111 209.799 295.907 210.33 296.859C217.195 309.164 238.584 347.5 278.495 347.5H346.995V339.5C331.829 341.167 301.495 333.6 301.495 290V195.5L313.995 182.5L418.995 347.5H528.495V339.5C525.662 340 518.095 338 510.495 326C502.895 314 419.662 182 378.995 117.5L466.495 27C472.162 20.8333 489.395 8.6 512.995 9V0H422.495V9C432.829 9.66667 450.395 17 437.995 41C413.595 66.6 336.162 145.333 300.495 181.5L301.495 9C301.662 6 299.995 0 291.995 0H136.995C103.495 2 36.5953 22.3 36.9953 87.5C39.9953 131 109.495 155 136.995 101C156.495 54 112.495 23.5 80.9934 27ZM212.494 139V252C209.161 280.333 188.694 333.4 133.494 319C67.4954 298.5 79.4954 214 129.494 185.5C166.995 160.669 201.495 144 212.494 139Z" fill="currentColor" fill-opacity="0.1"/>
</svg>
