<svg width="46" height="46" viewBox="0 0 46 46" fill="none" xmlns="http://www.w3.org/2000/svg">
<g filter="url(#filter0_b_778_101)">
<rect x="0.5" y="0.5" width="45" height="45" rx="22.5" stroke="white"/>
<path d="M28.9533 22.0781C28.911 22.1226 28.8601 22.1579 28.8037 22.1821C28.7473 22.2063 28.6865 22.2188 28.6252 22.2188C28.5638 22.2188 28.5031 22.2063 28.4467 22.1821C28.3903 22.1579 28.3394 22.1226 28.297 22.0781L23.4689 17.2578V29.875C23.4689 29.9993 23.4195 30.1185 23.3316 30.2065C23.2437 30.2944 23.1245 30.3438 23.0002 30.3438C22.8759 30.3438 22.7566 30.2944 22.6687 30.2065C22.5808 30.1185 22.5314 29.9993 22.5314 29.875V17.2578L17.7033 22.0781C17.6163 22.1651 17.4982 22.214 17.3752 22.214C17.2521 22.214 17.1341 22.1651 17.047 22.0781C16.96 21.9911 16.9111 21.8731 16.9111 21.75C16.9111 21.6269 16.96 21.5089 17.047 21.4219L22.672 15.7969C22.7144 15.7524 22.7653 15.7171 22.8217 15.6929C22.8781 15.6687 22.9388 15.6562 23.0002 15.6562C23.0615 15.6562 23.1223 15.6687 23.1787 15.6929C23.2351 15.7171 23.286 15.7524 23.3283 15.7969L28.9533 21.4219C28.9977 21.4642 29.0331 21.5151 29.0573 21.5715C29.0815 21.6279 29.0939 21.6886 29.0939 21.75C29.0939 21.8114 29.0815 21.8721 29.0573 21.9285C29.0331 21.9849 28.9977 22.0358 28.9533 22.0781Z" fill="white"/>
</g>
<defs>
<filter id="filter0_b_778_101" x="-30" y="-30" width="106" height="106" filterUnits="userSpaceOnUse" color-interpolation-filters="sRGB">
<feFlood flood-opacity="0" result="BackgroundImageFix"/>
<feGaussianBlur in="BackgroundImageFix" stdDeviation="15"/>
<feComposite in2="SourceAlpha" operator="in" result="effect1_backgroundBlur_778_101"/>
<feBlend mode="normal" in="SourceGraphic" in2="effect1_backgroundBlur_778_101" result="shape"/>
</filter>
</defs>
</svg>
